REM DIRINDEX 1\3,1\2\4,1\2\5,1\2\6
REM DIRNAME cjc137,folder01,folder02,folder03,folder04,folder05
TITLE ""
FILE "133.mp3" MP3
  TRACK 01 AUDIO
    TITLE "4:cjc137_5605"
    INDEX 01 00:00:00
  TRACK 02 AUDIO
    TITLE "0:"
    INDEX 01 00:01:09
  TRACK 03 AUDIO
    TITLE "6:cjc137_5606"
    INDEX 01 00:01:21
  TRACK 04 AUDIO
    TITLE "0:"
    INDEX 01 00:02:08
  TRACK 05 AUDIO
    TITLE "5:cjc137_5607"
    INDEX 01 00:02:18
  TRACK 06 AUDIO
    TITLE "0:"
    INDEX 01 00:03:27
  TRACK 07 AUDIO
    TITLE "4:cjc137_5608"
    INDEX 01 00:04:40
  TRACK 08 AUDIO
    TITLE "0:"
    INDEX 01 00:05:65
  TRACK 09 AUDIO
    TITLE "6:cjc137_5609"
    INDEX 01 00:05:73
  TRACK 10 AUDIO
    TITLE "0:"
    INDEX 01 00:07:17
  TRACK 11 AUDIO
    TITLE "5:cjc137_5610"
    INDEX 01 00:07:29
  TRACK 12 AUDIO
    TITLE "0:"
    INDEX 01 00:08:54
  TRACK 13 AUDIO
    TITLE "4:cjc137_5611"
    INDEX 01 00:09:61
  TRACK 14 AUDIO
    TITLE "0:"
    INDEX 01 00:10:66
  TRACK 15 AUDIO
    TITLE "6:cjc137_5612"
    INDEX 01 00:10:74
  TRACK 16 AUDIO
    TITLE "0:"
    INDEX 01 00:12:30
  TRACK 17 AUDIO
    TITLE "5:cjc137_5613"
    INDEX 01 00:12:34
  TRACK 18 AUDIO
    TITLE "0:"
    INDEX 01 00:13:39
  TRACK 19 AUDIO
    TITLE "4:cjc137_5614"
    INDEX 01 00:14:51
  TRACK 20 AUDIO
    TITLE "0:"
    INDEX 01 00:15:70
  TRACK 21 AUDIO
    TITLE "6:cjc137_5615"
    INDEX 01 00:16:02
  TRACK 22 AUDIO
    TITLE "0:"
    INDEX 01 00:17:23
  TRACK 23 AUDIO
    TITLE "5:cjc137_5616"
    INDEX 01 00:17:31
  TRACK 24 AUDIO
    TITLE "0:"
    INDEX 01 00:18:52
  TRACK 25 AUDIO
    TITLE "4:cjc137_5617"
    INDEX 01 00:19:60
  TRACK 26 AUDIO
    TITLE "0:"
    INDEX 01 00:20:65
  TRACK 27 AUDIO
    TITLE "6:cjc137_5618"
    INDEX 01 00:20:73
  TRACK 28 AUDIO
    TITLE "0:"
    INDEX 01 00:22:03
  TRACK 29 AUDIO
    TITLE "5:cjc137_5619"
    INDEX 01 00:22:09
  TRACK 30 AUDIO
    TITLE "0:"
    INDEX 01 00:23:14
  TRACK 31 AUDIO
    TITLE "4:cjc137_5620"
    INDEX 01 00:24:22
  TRACK 32 AUDIO
    TITLE "0:"
    INDEX 01 00:25:29
  TRACK 33 AUDIO
    TITLE "6:cjc137_5621"
    INDEX 01 00:25:37
  TRACK 34 AUDIO
    TITLE "0:"
    INDEX 01 00:27:12
  TRACK 35 AUDIO
    TITLE "5:cjc137_5622"
    INDEX 01 00:27:16
  TRACK 36 AUDIO
    TITLE "0:"
    INDEX 01 00:28:25
  TRACK 37 AUDIO
    TITLE "4:cjc137_5623"
    INDEX 01 00:29:34
  TRACK 38 AUDIO
    TITLE "0:"
    INDEX 01 00:30:42
  TRACK 39 AUDIO
    TITLE "6:cjc137_5624"
    INDEX 01 00:30:57
  TRACK 40 AUDIO
    TITLE "0:"
    INDEX 01 00:31:43
  TRACK 41 AUDIO
    TITLE "5:cjc137_5625"
    INDEX 01 00:31:51
  TRACK 42 AUDIO
    TITLE "0:"
    INDEX 01 00:32:60
  TRACK 43 AUDIO
    TITLE "4:cjc137_5626"
    INDEX 01 00:33:71
  TRACK 44 AUDIO
    TITLE "0:"
    INDEX 01 00:35:00
  TRACK 45 AUDIO
    TITLE "6:cjc137_5627"
    INDEX 01 00:35:06
  TRACK 46 AUDIO
    TITLE "0:"
    INDEX 01 00:37:24
  TRACK 47 AUDIO
    TITLE "5:cjc137_5628"
    INDEX 01 00:37:32
  TRACK 48 AUDIO
    TITLE "0:"
    INDEX 01 00:38:35
  TRACK 49 AUDIO
    TITLE "4:cjc137_5629"
    INDEX 01 00:39:43
  TRACK 50 AUDIO
    TITLE "0:"
    INDEX 01 00:40:56
  TRACK 51 AUDIO
    TITLE "6:cjc137_5630"
    INDEX 01 00:40:62
  TRACK 52 AUDIO
    TITLE "0:"
    INDEX 01 00:41:61
  TRACK 53 AUDIO
    TITLE "5:cjc137_5631"
    INDEX 01 00:41:69
  TRACK 54 AUDIO
    TITLE "0:"
    INDEX 01 00:43:07
  TRACK 55 AUDIO
    TITLE "4:cjc137_5632"
    INDEX 01 00:44:12
  TRACK 56 AUDIO
    TITLE "0:"
    INDEX 01 00:45:33
  TRACK 57 AUDIO
    TITLE "6:cjc137_5633"
    INDEX 01 00:45:37
  TRACK 58 AUDIO
    TITLE "0:"
    INDEX 01 00:46:62
  TRACK 59 AUDIO
    TITLE "5:cjc137_5634"
    INDEX 01 00:46:68
  TRACK 60 AUDIO
    TITLE "0:"
    INDEX 01 00:48:12
  TRACK 61 AUDIO
    TITLE "4:cjc137_5635"
    INDEX 01 00:49:18
  TRACK 62 AUDIO
    TITLE "0:"
    INDEX 01 00:50:29
  TRACK 63 AUDIO
    TITLE "6:cjc137_5636"
    INDEX 01 00:50:37
  TRACK 64 AUDIO
    TITLE "0:"
    INDEX 01 00:51:34
  TRACK 65 AUDIO
    TITLE "5:cjc137_5637"
    INDEX 01 00:51:42
  TRACK 66 AUDIO
    TITLE "0:"
    INDEX 01 00:52:55
  TRACK 67 AUDIO
    TITLE "4:cjc137_5638"
    INDEX 01 00:53:60
  TRACK 68 AUDIO
    TITLE "0:"
    INDEX 01 00:54:62
  TRACK 69 AUDIO
    TITLE "6:cjc137_5639"
    INDEX 01 00:54:68
  TRACK 70 AUDIO
    TITLE "0:"
    INDEX 01 00:55:61
  TRACK 71 AUDIO
    TITLE "5:cjc137_5640"
    INDEX 01 00:55:67
  TRACK 72 AUDIO
    TITLE "0:"
    INDEX 01 00:56:67
  TRACK 73 AUDIO
    TITLE "4:cjc137_5641"
    INDEX 01 00:58:01
  TRACK 74 AUDIO
    TITLE "0:"
    INDEX 01 00:59:28
  TRACK 75 AUDIO
    TITLE "6:cjc137_5642"
    INDEX 01 00:59:36
  TRACK 76 AUDIO
    TITLE "0:"
    INDEX 01 01:00:39
  TRACK 77 AUDIO
    TITLE "5:cjc137_5643"
    INDEX 01 01:00:45
  TRACK 78 AUDIO
    TITLE "0:"
    INDEX 01 01:01:72
  TRACK 79 AUDIO
    TITLE "4:cjc137_5644"
    INDEX 01 01:03:06
  TRACK 80 AUDIO
    TITLE "0:"
    INDEX 01 01:04:25
  TRACK 81 AUDIO
    TITLE "6:cjc137_5645"
    INDEX 01 01:04:31
  TRACK 82 AUDIO
    TITLE "0:"
    INDEX 01 01:05:48
  TRACK 83 AUDIO
    TITLE "5:cjc137_5646"
    INDEX 01 01:05:50
  TRACK 84 AUDIO
    TITLE "0:"
    INDEX 01 01:06:71
  TRACK 85 AUDIO
    TITLE "4:cjc137_5647"
    INDEX 01 01:08:03
  TRACK 86 AUDIO
    TITLE "0:"
    INDEX 01 01:09:16
  TRACK 87 AUDIO
    TITLE "6:cjc137_5648"
    INDEX 01 01:09:22
  TRACK 88 AUDIO
    TITLE "0:"
    INDEX 01 01:10:51
  TRACK 89 AUDIO
    TITLE "5:cjc137_5649"
    INDEX 01 01:10:59
  TRACK 90 AUDIO
    TITLE "0:"
    INDEX 01 01:11:70
  TRACK 91 AUDIO
    TITLE "4:cjc137_5650"
    INDEX 01 01:13:04
  TRACK 92 AUDIO
    TITLE "0:"
    INDEX 01 01:14:02
  TRACK 93 AUDIO
    TITLE "6:cjc137_5651"
    INDEX 01 01:14:10
  TRACK 94 AUDIO
    TITLE "0:"
    INDEX 01 01:14:68
  TRACK 95 AUDIO
    TITLE "5:cjc137_5652"
    INDEX 01 01:15:03
  TRACK 96 AUDIO
    TITLE "0:"
    INDEX 01 01:15:74
  TRACK 97 AUDIO
    TITLE "4:cjc137_5653"
    INDEX 01 01:17:12
  TRACK 98 AUDIO
    TITLE "0:"
    INDEX 01 01:18:15
  TRACK 99 AUDIO
    TITLE "6:cjc137_5654"
    INDEX 01 01:18:21
  TRACK 100 AUDIO
    TITLE "0:"
    INDEX 01 01:19:19
  TRACK 101 AUDIO
    TITLE "5:cjc137_5655"
    INDEX 01 01:19:28
  TRACK 102 AUDIO
    TITLE "0:"
    INDEX 01 01:20:32
  TRACK 103 AUDIO
    TITLE "4:cjc137_5656"
    INDEX 01 01:21:41
  TRACK 104 AUDIO
    TITLE "0:"
    INDEX 01 01:22:58
  TRACK 105 AUDIO
    TITLE "6:cjc137_5657"
    INDEX 01 01:22:64
  TRACK 106 AUDIO
    TITLE "0:"
    INDEX 01 01:23:54
  TRACK 107 AUDIO
    TITLE "5:cjc137_5658"
    INDEX 01 01:23:60
  TRACK 108 AUDIO
    TITLE "0:"
    INDEX 01 01:25:02
  TRACK 109 AUDIO
    TITLE "4:cjc137_5659"
    INDEX 01 01:26:13
  TRACK 110 AUDIO
    TITLE "0:"
    INDEX 01 01:27:30
  TRACK 111 AUDIO
    TITLE "6:cjc137_5660"
    INDEX 01 01:27:36
  TRACK 112 AUDIO
    TITLE "0:"
    INDEX 01 01:29:62
  TRACK 113 AUDIO
    TITLE "5:cjc137_5661"
    INDEX 01 01:29:70
  TRACK 114 AUDIO
    TITLE "0:"
    INDEX 01 01:31:12
  TRACK 115 AUDIO
    TITLE "4:cjc137_5662"
    INDEX 01 01:32:19
  TRACK 116 AUDIO
    TITLE "0:"
    INDEX 01 01:33:36
  TRACK 117 AUDIO
    TITLE "6:cjc137_5663"
    INDEX 01 01:33:44
  TRACK 118 AUDIO
    TITLE "0:"
    INDEX 01 01:34:73
  TRACK 119 AUDIO
    TITLE "5:cjc137_5664"
    INDEX 01 01:35:04
  TRACK 120 AUDIO
    TITLE "0:"
    INDEX 01 01:36:21
